<?xml version="1.0" encoding="UTF-8"?>
<!DOCTYPE svg PUBLIC "-//W3C//DTD SVG 1.1//EN" "http://www.w3.org/Graphics/SVG/1.1/DTD/svg11.dtd">
<svg xmlns="http://www.w3.org/2000/svg" version="1.1" width="551px" height="508px" style="shape-rendering:geometricPrecision; text-rendering:geometricPrecision; image-rendering:optimizeQuality; fill-rule:evenodd; clip-rule:evenodd" xmlns:xlink="http://www.w3.org/1999/xlink">
<g><path style="opacity:0.098" fill="#bcf7fd" d="M 358.5,18.5 C 353.482,18.6133 348.482,18.9466 343.5,19.5C 348.421,17.5069 353.421,17.1736 358.5,18.5 Z"/></g>
<g><path style="opacity:0.231" fill="#b5eefe" d="M 358.5,18.5 C 367.064,18.7981 374.731,21.4648 381.5,26.5C 374.021,23.0083 366.355,20.3417 358.5,18.5 Z"/></g>
<g><path style="opacity:1" fill="#07aaea" d="M 358.5,18.5 C 366.355,20.3417 374.021,23.0083 381.5,26.5C 381.833,27.1667 382.167,27.8333 382.5,28.5C 382.586,29.4959 382.252,30.3292 381.5,31C 383.39,32.8731 385.39,33.7064 387.5,33.5C 385.022,35.5637 385.022,37.5637 387.5,39.5C 385.24,41.4071 385.073,43.4071 387,45.5C 387.419,44.3279 388.085,43.3279 389,42.5C 389.179,40.5758 389.346,38.9091 389.5,37.5C 395.301,38.9989 396.634,42.1656 393.5,47C 395.716,47.3934 397.716,46.8934 399.5,45.5C 400.338,45.8417 400.672,46.5084 400.5,47.5C 400.932,48.7095 401.599,49.7095 402.5,50.5C 402.575,53.2062 402.908,55.8728 403.5,58.5C 402.53,59.6293 401.364,60.6293 400,61.5C 396.918,60.1966 394.085,58.5299 391.5,56.5C 385.765,56.1631 380.432,54.6631 375.5,52C 372.854,51.5026 370.187,51.3359 367.5,51.5C 367.5,50.1667 367.5,48.8333 367.5,47.5C 356.833,46.1667 346.167,44.8333 335.5,43.5C 335.5,42.1667 335.5,40.8333 335.5,39.5C 332.833,39.5 330.167,39.5 327.5,39.5C 327.5,38.5 327.5,37.5 327.5,36.5C 322.167,36.1667 316.833,35.8333 311.5,35.5C 311.5,34.1667 311.5,32.8333 311.5,31.5C 315.182,31.6653 318.848,31.4986 322.5,31C 313.496,28.2441 304.496,28.0774 295.5,30.5C 293.631,30.4932 291.964,30.1599 290.5,29.5C 306.699,26.9137 322.699,23.9137 338.5,20.5C 339.919,19.5489 341.585,19.2155 343.5,19.5C 348.482,18.9466 353.482,18.6133 358.5,18.5 Z"/></g>
<g><path style="opacity:0.424" fill="#a4e3f8" d="M 338.5,20.5 C 322.699,23.9137 306.699,26.9137 290.5,29.5C 290.167,29.5 289.833,29.5 289.5,29.5C 287.833,29.5 286.167,29.5 284.5,29.5C 302.292,26.0124 320.292,23.0124 338.5,20.5 Z"/></g>
<g><path style="opacity:1" fill="#b9f1ff" d="M 381.5,26.5 C 384.732,26.7717 386.732,28.4384 387.5,31.5C 386.078,30.075 384.411,29.075 382.5,28.5C 382.167,27.8333 381.833,27.1667 381.5,26.5 Z"/></g>
<g><path style="opacity:1" fill="#87d0ec" d="M 284.5,29.5 C 286.167,29.5 287.833,29.5 289.5,29.5C 286.167,30.5 282.833,31.5 279.5,32.5C 275.434,32.307 271.434,32.6403 267.5,33.5C 266.5,33.5 265.5,33.5 264.5,33.5C 270.958,31.8078 277.625,30.4744 284.5,29.5 Z"/></g>
<g><path style="opacity:1" fill="#00a7e8" d="M 403.5,58.5 C 404.537,59.9303 405.204,61.597 405.5,63.5C 404.539,65.2646 404.205,67.2646 404.5,69.5C 402.774,69.1854 401.107,69.0187 399.5,69C 399.784,70.9562 399.784,73.1229 399.5,75.5C 393.974,76.289 388.974,75.1223 384.5,72C 381.518,71.502 378.518,71.3354 375.5,71.5C 375.5,70.1667 375.5,68.8333 375.5,67.5C 370.167,67.1667 364.833,66.8333 359.5,66.5C 359.5,65.5 359.5,64.5 359.5,63.5C 356.833,63.5 354.167,63.5 351.5,63.5C 351.5,62.1667 351.5,60.8333 351.5,59.5C 348.15,59.665 344.817,59.4983 341.5,59C 337.143,56.5774 332.476,55.4107 327.5,55.5C 327.5,54.5 327.5,53.5 327.5,52.5C 325.213,52.2761 323.047,51.6094 321,50.5C 315.029,52.3889 309.529,51.5556 304.5,48C 301.518,47.502 298.518,47.3354 295.5,47.5C 295.5,46.1667 295.5,44.8333 295.5,43.5C 291.818,43.6653 288.152,43.4986 284.5,43C 283.446,41.6124 283.28,40.1124 284,38.5C 287.691,37.3252 288.191,35.4919 285.5,33C 283.527,32.5045 281.527,32.3379 279.5,32.5C 282.833,31.5 286.167,30.5 289.5,29.5C 289.833,29.5 290.167,29.5 290.5,29.5C 291.964,30.1599 293.631,30.4932 295.5,30.5C 304.496,28.0774 313.496,28.2441 322.5,31C 318.848,31.4986 315.182,31.6653 311.5,31.5C 311.5,32.8333 311.5,34.1667 311.5,35.5C 316.833,35.8333 322.167,36.1667 327.5,36.5C 327.5,37.5 327.5,38.5 327.5,39.5C 330.167,39.5 332.833,39.5 335.5,39.5C 335.5,40.8333 335.5,42.1667 335.5,43.5C 346.167,44.8333 356.833,46.1667 367.5,47.5C 367.5,48.8333 367.5,50.1667 367.5,51.5C 370.187,51.3359 372.854,51.5026 375.5,52C 380.432,54.6631 385.765,56.1631 391.5,56.5C 394.085,58.5299 396.918,60.1966 400,61.5C 401.364,60.6293 402.53,59.6293 403.5,58.5 Z"/></g>
<g><path style="opacity:1" fill="#00a3e6" d="M 279.5,32.5 C 281.527,32.3379 283.527,32.5045 285.5,33C 288.191,35.4919 287.691,37.3252 284,38.5C 283.28,40.1124 283.446,41.6124 284.5,43C 288.152,43.4986 291.818,43.6653 295.5,43.5C 295.5,44.8333 295.5,46.1667 295.5,47.5C 298.518,47.3354 301.518,47.502 304.5,48C 309.529,51.5556 315.029,52.3889 321,50.5C 323.047,51.6094 325.213,52.2761 327.5,52.5C 327.5,53.5 327.5,54.5 327.5,55.5C 332.476,55.4107 337.143,56.5774 341.5,59C 344.817,59.4983 348.15,59.665 351.5,59.5C 351.5,60.8333 351.5,62.1667 351.5,63.5C 354.167,63.5 356.833,63.5 359.5,63.5C 359.5,64.5 359.5,65.5 359.5,66.5C 364.833,66.8333 370.167,67.1667 375.5,67.5C 375.5,68.8333 375.5,70.1667 375.5,71.5C 378.518,71.3354 381.518,71.502 384.5,72C 388.974,75.1223 393.974,76.289 399.5,75.5C 399.784,73.1229 399.784,70.9562 399.5,69C 401.107,69.0187 402.774,69.1854 404.5,69.5C 405.244,73.1185 405.577,76.7852 405.5,80.5C 390.167,80.5 374.833,80.5 359.5,80.5C 357.052,79.5269 354.385,79.1936 351.5,79.5C 351.5,78.1667 351.5,76.8333 351.5,75.5C 340.591,75.079 329.925,73.7456 319.5,71.5C 319.5,70.5 319.5,69.5 319.5,68.5C 316.833,68.5 314.167,68.5 311.5,68.5C 311.5,67.5 311.5,66.5 311.5,65.5C 308.833,65.5 306.167,65.5 303.5,65.5C 303.5,63.5 303.5,61.5 303.5,59.5C 296.786,59.6374 290.12,59.1374 283.5,58C 284.938,57.7811 286.271,57.2811 287.5,56.5C 286.833,56.1667 286.167,55.8333 285.5,55.5C 280.889,56.014 276.223,56.014 271.5,55.5C 271.5,54.5 271.5,53.5 271.5,52.5C 266.156,52.666 260.823,52.4994 255.5,52C 252.554,51.1939 249.888,49.8605 247.5,48C 245.1,47.8142 242.766,47.3142 240.5,46.5C 241.689,45.5713 243.022,45.238 244.5,45.5C 248.555,45.8242 252.555,45.4909 256.5,44.5C 254.234,43.6858 251.9,43.1858 249.5,43C 248.663,41.9887 248.33,40.8221 248.5,39.5C 250.467,39.7394 252.301,39.4061 254,38.5C 255.916,41.033 257.916,41.033 260,38.5C 261.395,39.4303 262.895,39.4303 264.5,38.5C 273.473,42.169 273.806,41.0023 265.5,35C 266.416,34.7216 267.082,34.2216 267.5,33.5C 271.434,32.6403 275.434,32.307 279.5,32.5 Z"/></g>
<g><path style="opacity:0.567" fill="#ccfffe" d="M 252.5,35.5 C 250.735,36.4614 248.735,36.7947 246.5,36.5C 248.444,35.1723 250.444,34.839 252.5,35.5 Z"/></g>
<g><path style="opacity:0.231" fill="#a7eaf5" d="M 392.5,35.5 C 393.906,35.9731 394.573,36.9731 394.5,38.5C 393.094,38.0269 392.427,37.0269 392.5,35.5 Z"/></g>
<g><path style="opacity:0.165" fill="#c3fafe" d="M 240.5,37.5 C 237.456,39.0114 234.122,39.678 230.5,39.5C 233.589,38.2154 236.922,37.5488 240.5,37.5 Z"/></g>
<g><path style="opacity:1" fill="#39abe2" d="M 264.5,33.5 C 265.5,33.5 266.5,33.5 267.5,33.5C 267.082,34.2216 266.416,34.7216 265.5,35C 273.806,41.0023 273.473,42.169 264.5,38.5C 262.895,39.4303 261.395,39.4303 260,38.5C 257.916,41.033 255.916,41.033 254,38.5C 252.301,39.4061 250.467,39.7394 248.5,39.5C 248.33,40.8221 248.663,41.9887 249.5,43C 251.9,43.1858 254.234,43.6858 256.5,44.5C 252.555,45.4909 248.555,45.8242 244.5,45.5C 241.366,40.8809 237.032,39.3809 231.5,41C 232.668,42.8709 232.168,44.3709 230,45.5C 227.254,42.9748 224.42,42.9748 221.5,45.5C 215.538,44.5592 209.538,44.5592 203.5,45.5C 208.833,44.1667 214.167,42.8333 219.5,41.5C 222.909,40.0966 226.575,39.4299 230.5,39.5C 234.122,39.678 237.456,39.0114 240.5,37.5C 242.265,36.5386 244.265,36.2053 246.5,36.5C 248.735,36.7947 250.735,36.4614 252.5,35.5C 256.236,34.0109 260.236,33.3442 264.5,33.5 Z"/></g>
<g><path style="opacity:1" fill="#29afe3" d="M 382.5,28.5 C 384.411,29.075 386.078,30.075 387.5,31.5C 389.749,32.0798 391.415,33.4131 392.5,35.5C 392.427,37.0269 393.094,38.0269 394.5,38.5C 396.9,40.2964 398.567,42.6298 399.5,45.5C 397.716,46.8934 395.716,47.3934 393.5,47C 396.634,42.1656 395.301,38.9989 389.5,37.5C 389.346,38.9091 389.179,40.5758 389,42.5C 388.085,43.3279 387.419,44.3279 387,45.5C 385.073,43.4071 385.24,41.4071 387.5,39.5C 385.022,37.5637 385.022,35.5637 387.5,33.5C 385.39,33.7064 383.39,32.8731 381.5,31C 382.252,30.3292 382.586,29.4959 382.5,28.5 Z"/></g>
<g><path style="opacity:0.196" fill="#b4f1fe" d="M 219.5,41.5 C 214.167,42.8333 208.833,44.1667 203.5,45.5C 201.5,45.5 199.5,45.5 197.5,45.5C 204.602,43.5368 211.935,42.2035 219.5,41.5 Z"/></g>
<g><path style="opacity:1" fill="#019fe1" d="M 244.5,45.5 C 243.022,45.238 241.689,45.5713 240.5,46.5C 242.766,47.3142 245.1,47.8142 247.5,48C 249.888,49.8605 252.554,51.1939 255.5,52C 260.823,52.4994 266.156,52.666 271.5,52.5C 271.5,53.5 271.5,54.5 271.5,55.5C 276.223,56.014 280.889,56.014 285.5,55.5C 286.167,55.8333 286.833,56.1667 287.5,56.5C 286.271,57.2811 284.938,57.7811 283.5,58C 290.12,59.1374 296.786,59.6374 303.5,59.5C 303.5,61.5 303.5,63.5 303.5,65.5C 306.167,65.5 308.833,65.5 311.5,65.5C 311.5,66.5 311.5,67.5 311.5,68.5C 314.167,68.5 316.833,68.5 319.5,68.5C 319.5,69.5 319.5,70.5 319.5,71.5C 329.925,73.7456 340.591,75.079 351.5,75.5C 351.5,76.8333 351.5,78.1667 351.5,79.5C 354.385,79.1936 357.052,79.5269 359.5,80.5C 319.167,80.5 278.833,80.5 238.5,80.5C 236.393,79.5318 234.059,79.1984 231.5,79.5C 231.5,78.1667 231.5,76.8333 231.5,75.5C 225.922,74.7723 220.422,74.7723 215,75.5C 213.5,74.6667 212.333,73.5 211.5,72C 207.514,71.5012 203.514,71.3345 199.5,71.5C 199.5,70.1667 199.5,68.8333 199.5,67.5C 193.974,68.289 188.974,67.1223 184.5,64C 185.5,63.6667 186.5,63.3333 187.5,63C 178.317,62.2796 169.317,60.9462 160.5,59C 158.598,57.6062 158.265,55.7729 159.5,53.5C 172.188,50.9624 184.855,48.2957 197.5,45.5C 199.5,45.5 201.5,45.5 203.5,45.5C 209.538,44.5592 215.538,44.5592 221.5,45.5C 224.42,42.9748 227.254,42.9748 230,45.5C 232.168,44.3709 232.668,42.8709 231.5,41C 237.032,39.3809 241.366,40.8809 244.5,45.5 Z"/></g>
<g><path style="opacity:0.02" fill="#c8f7fd" d="M 400.5,47.5 C 402.048,47.8212 402.715,48.8212 402.5,50.5C 401.599,49.7095 400.932,48.7095 400.5,47.5 Z"/></g>
<g><path style="opacity:0.435" fill="#9edaf3" d="M 197.5,45.5 C 184.855,48.2957 172.188,50.9624 159.5,53.5C 156.167,53.5 152.833,53.5 149.5,53.5C 164.707,50.5208 180.707,47.8541 197.5,45.5 Z"/></g>
<g><path style="opacity:1" fill="#9fd9e6" d="M 138.5,55.5 C 136.162,57.0395 133.495,57.7062 130.5,57.5C 132.838,55.9605 135.505,55.2938 138.5,55.5 Z"/></g>
<g><path style="opacity:1" fill="#129adc" d="M 149.5,53.5 C 152.833,53.5 156.167,53.5 159.5,53.5C 158.265,55.7729 158.598,57.6062 160.5,59C 169.317,60.9462 178.317,62.2796 187.5,63C 186.5,63.3333 185.5,63.6667 184.5,64C 188.974,67.1223 193.974,68.289 199.5,67.5C 199.5,68.8333 199.5,70.1667 199.5,71.5C 203.514,71.3345 207.514,71.5012 211.5,72C 212.333,73.5 213.5,74.6667 215,75.5C 220.422,74.7723 225.922,74.7723 231.5,75.5C 231.5,76.8333 231.5,78.1667 231.5,79.5C 234.059,79.1984 236.393,79.5318 238.5,80.5C 178.466,80.6473 118.466,80.4807 58.5,80C 59.2524,80.6708 59.5858,81.5041 59.5,82.5C 55.8936,82.7892 52.3936,82.4558 49,81.5C 47.513,82.2529 47.3463,83.0862 48.5,84C 46,84.8333 43.5,85.6667 41,86.5C 39.9701,86.8361 39.4701,87.5028 39.5,88.5C 38.1667,88.8333 36.8333,89.1667 35.5,89.5C 33.3337,89.5789 31.3337,90.2455 29.5,91.5C 28.5836,91.4573 27.9169,91.1239 27.5,90.5C 29.261,88.407 30.5943,86.0736 31.5,83.5C 35.7321,81.5998 39.3988,78.9331 42.5,75.5C 43.5137,74.3263 44.847,73.6596 46.5,73.5C 49.4432,73.0198 52.1098,72.0198 54.5,70.5C 55.9187,69.5489 57.5853,69.2155 59.5,69.5C 64.3696,69.3104 69.0363,68.6437 73.5,67.5C 82.261,65.2162 91.261,63.5495 100.5,62.5C 102.735,62.7947 104.735,62.4614 106.5,61.5C 111.591,59.8711 116.924,58.8711 122.5,58.5C 128.509,58.6662 134.509,58.4995 140.5,58C 143.83,56.7508 146.83,55.2508 149.5,53.5 Z"/></g>
<g><path style="opacity:1" fill="#abe4f8" d="M 402.5,50.5 C 404.807,54.8106 406.307,59.4773 407,64.5C 407.241,69.705 407.741,74.8717 408.5,80C 408.355,80.772 408.022,81.4387 407.5,82C 292.834,82.5 178.167,82.6667 63.5,82.5C 177.665,81.5005 291.999,81.1672 406.5,81.5C 406.575,75.4707 406.241,69.4707 405.5,63.5C 405.204,61.597 404.537,59.9303 403.5,58.5C 402.908,55.8728 402.575,53.2062 402.5,50.5 Z"/></g>
<g><path style="opacity:1" fill="#60b3da" d="M 149.5,53.5 C 146.83,55.2508 143.83,56.7508 140.5,58C 134.509,58.4995 128.509,58.6662 122.5,58.5C 124.556,57.7839 126.723,57.1172 129,56.5C 129.383,57.056 129.883,57.3893 130.5,57.5C 133.495,57.7062 136.162,57.0395 138.5,55.5C 142.101,54.5367 145.767,53.87 149.5,53.5 Z"/></g>
<g><path style="opacity:1" fill="#cafdff" d="M 106.5,61.5 C 104.735,62.4614 102.735,62.7947 100.5,62.5C 102.444,61.1723 104.444,60.839 106.5,61.5 Z"/></g>
<g><path style="opacity:1" fill="#abe9fb" d="M 73.5,67.5 C 69.0363,68.6437 64.3696,69.3104 59.5,69.5C 60.2625,68.7321 61.2625,68.2321 62.5,68C 66.1516,67.5014 69.8183,67.3347 73.5,67.5 Z"/></g>
<g><path style="opacity:0.204" fill="#b1e3f9" d="M 54.5,70.5 C 52.1098,72.0198 49.4432,73.0198 46.5,73.5C 48.6845,71.4152 51.3511,70.4152 54.5,70.5 Z"/></g>
<g><path style="opacity:0.502" fill="#8ecae0" d="M 42.5,75.5 C 39.3988,78.9331 35.7321,81.5998 31.5,83.5C 34.6012,80.0669 38.2679,77.4002 42.5,75.5 Z"/></g>
<g><path style="opacity:1" fill="#1994c9" d="M 405.5,63.5 C 406.241,69.4707 406.575,75.4707 406.5,81.5C 291.999,81.1672 177.665,81.5005 63.5,82.5C 62.1667,82.5 60.8333,82.5 59.5,82.5C 59.5858,81.5041 59.2524,80.6708 58.5,80C 118.466,80.4807 178.466,80.6473 238.5,80.5C 278.833,80.5 319.167,80.5 359.5,80.5C 374.833,80.5 390.167,80.5 405.5,80.5C 405.577,76.7852 405.244,73.1185 404.5,69.5C 404.205,67.2646 404.539,65.2646 405.5,63.5 Z"/></g>
<g><path style="opacity:0.125" fill="#c2f5fc" d="M 56.5,83.5 C 54.7857,84.7384 52.7857,85.405 50.5,85.5C 52.1016,83.9261 54.1016,83.2594 56.5,83.5 Z"/></g>
<g><path style="opacity:1" fill="#6ab3d7" d="M 59.5,82.5 C 60.8333,82.5 62.1667,82.5 63.5,82.5C 61.3926,83.4682 59.0593,83.8016 56.5,83.5C 54.1016,83.2594 52.1016,83.9261 50.5,85.5C 47.5786,86.696 44.5786,87.696 41.5,88.5C 40.8333,88.5 40.1667,88.5 39.5,88.5C 39.4701,87.5028 39.9701,86.8361 41,86.5C 43.5,85.6667 46,84.8333 48.5,84C 47.3463,83.0862 47.513,82.2529 49,81.5C 52.3936,82.4558 55.8936,82.7892 59.5,82.5 Z"/></g>
<g><path style="opacity:1" fill="#96cee3" d="M 39.5,88.5 C 40.1667,88.5 40.8333,88.5 41.5,88.5C 39.5439,89.4918 37.5439,90.4918 35.5,91.5C 35.5,90.8333 35.5,90.1667 35.5,89.5C 36.8333,89.1667 38.1667,88.8333 39.5,88.5 Z"/></g>
<g><path style="opacity:1" fill="#45a1d0" d="M 35.5,89.5 C 35.5,90.1667 35.5,90.8333 35.5,91.5C 33.3649,93.0709 31.0316,94.4043 28.5,95.5C 27.1667,95.5 25.8333,95.5 24.5,95.5C 24.2729,93.0672 25.2729,91.4006 27.5,90.5C 27.9169,91.1239 28.5836,91.4573 29.5,91.5C 31.3337,90.2455 33.3337,89.5789 35.5,89.5 Z"/></g>
<g><path style="opacity:1" fill="#8bc8e0" d="M 31.5,83.5 C 30.5943,86.0736 29.261,88.407 27.5,90.5C 25.2729,91.4006 24.2729,93.0672 24.5,95.5C 25.8333,95.5 27.1667,95.5 28.5,95.5C 26.487,97.4974 24.1537,99.164 21.5,100.5C 20.6919,100.192 20.0253,99.6924 19.5,99C 22.599,93.076 26.599,87.9093 31.5,83.5 Z"/></g>
<g><path style="opacity:0.996" fill="#a8e5f5" d="M 503.5,104.5 C 497.059,102.223 490.392,100.556 483.5,99.5C 482.167,99.5 480.833,99.5 479.5,99.5C 354.833,99.5 230.167,99.5 105.5,99.5C 91.496,99.3334 77.496,99.5001 63.5,100C 58.0424,101.239 52.709,102.739 47.5,104.5C 52.5855,101.078 58.2522,98.9116 64.5,98C 202.749,97.3914 341.083,97.3914 479.5,98C 488.354,97.6273 496.354,99.794 503.5,104.5 Z"/></g>
<g><path style="opacity:1" fill="#01b0ee" d="M 105.5,99.5 C 105.5,99.8333 105.5,100.167 105.5,100.5C 105.586,101.496 105.252,102.329 104.5,103C 114.146,127.459 124.479,151.625 135.5,175.5C 134.025,173.993 132.691,172.327 131.5,170.5C 130.356,168.9 129.189,167.233 128,165.5C 122.803,167.42 117.303,168.087 111.5,167.5C 111.5,162.833 111.5,158.167 111.5,153.5C 112.833,153.5 114.167,153.5 115.5,153.5C 115.5,155.5 115.5,157.5 115.5,159.5C 117.5,159.5 119.5,159.5 121.5,159.5C 121.809,154.733 121.309,150.066 120,145.5C 118.333,144.167 116.667,142.833 115,141.5C 114.577,142.956 113.744,143.456 112.5,143C 113.187,140.768 113.521,138.602 113.5,136.5C 113,135.5 112.5,134.5 112,133.5C 111.501,138.155 111.334,142.821 111.5,147.5C 101.013,150.119 90.3466,151.453 79.5,151.5C 79.5,152.833 79.5,154.167 79.5,155.5C 76.8333,155.5 74.1667,155.5 71.5,155.5C 71.5,156.833 71.5,158.167 71.5,159.5C 63.5,159.5 55.5,159.5 47.5,159.5C 47.5,161.5 47.5,163.5 47.5,165.5C 42.1667,165.5 36.8333,165.5 31.5,165.5C 31.5,162.833 31.5,160.167 31.5,157.5C 30.325,157.281 29.325,157.614 28.5,158.5C 28.8216,161.976 29.8216,165.142 31.5,168C 30.244,168.417 29.5774,169.25 29.5,170.5C 27.8829,171.589 27.0496,173.256 27,175.5C 26.8485,172.881 26.0152,170.547 24.5,168.5C 23.7492,169.376 23.2492,170.376 23,171.5C 22.6667,170.167 22.3333,168.833 22,167.5C 20.6159,173.109 20.2825,178.775 21,184.5C 21.3333,182.167 21.6667,179.833 22,177.5C 23.2901,182.011 24.1234,186.677 24.5,191.5C 22.8333,191.5 21.1667,191.5 19.5,191.5C 19.8294,176.324 19.4961,161.324 18.5,146.5C 20.0304,141.237 21.3637,135.904 22.5,130.5C 24.3481,128.267 26.0148,125.934 27.5,123.5C 34.5198,117.809 41.1864,111.809 47.5,105.5C 47.5,105.167 47.5,104.833 47.5,104.5C 52.709,102.739 58.0424,101.239 63.5,100C 77.496,99.5001 91.496,99.3334 105.5,99.5 Z"/></g>
<g><path style="opacity:1" fill="#06bbef" d="M 105.5,100.5 C 105.5,100.167 105.5,99.8333 105.5,99.5C 230.167,99.5 354.833,99.5 479.5,99.5C 426.335,100.333 373.002,100.833 319.5,101C 332.816,101.944 346.149,102.444 359.5,102.5C 401.164,101.492 442.83,101.325 484.5,102C 482.852,105.374 480.852,105.874 478.5,103.5C 462.18,102.501 445.847,102.167 429.5,102.5C 429.318,107.794 428.818,107.794 428,102.5C 427.333,107.833 426.667,107.833 426,102.5C 425.333,107.833 424.667,107.833 424,102.5C 423.581,106.852 422.914,107.185 422,103.5C 421.333,107.5 420.667,107.5 420,103.5C 419.333,107.5 418.667,107.5 418,103.5C 417.333,107.5 416.667,107.5 416,103.5C 415.517,104.448 415.351,105.448 415.5,106.5C 314.639,107.566 211.972,107.566 107.5,106.5C 106.862,104.54 106.862,102.707 107.5,101C 106.906,100.536 106.239,100.369 105.5,100.5 Z"/></g>
<g><path style="opacity:1" fill="#00b8f0" d="M 479.5,99.5 C 480.833,99.5 482.167,99.5 483.5,99.5C 486.135,101.328 489.135,102.495 492.5,103C 488.622,104.065 488.622,104.899 492.5,105.5C 496.138,106.233 499.804,106.4 503.5,106C 504.973,106.71 505.64,107.876 505.5,109.5C 507.167,109.5 508.833,109.5 510.5,109.5C 511.167,109.833 511.833,110.167 512.5,110.5C 512.973,111.906 513.973,112.573 515.5,112.5C 517.19,112.856 518.19,113.856 518.5,115.5C 519.419,118.089 521.086,120.089 523.5,121.5C 523.427,123.027 524.094,124.027 525.5,124.5C 525.427,126.027 526.094,127.027 527.5,127.5C 528.969,133.903 530.636,140.236 532.5,146.5C 531.668,177.331 531.168,208.331 531,239.5C 530.475,218.058 529.475,196.724 528,175.5C 527.501,180.823 527.334,186.156 527.5,191.5C 522.167,191.5 516.833,191.5 511.5,191.5C 511.5,193.5 511.5,195.5 511.5,197.5C 490.167,198.167 468.833,198.833 447.5,199.5C 447.5,202.167 447.5,204.833 447.5,207.5C 431.5,207.5 415.5,207.5 399.5,207.5C 399.5,209.5 399.5,211.5 399.5,213.5C 378.204,215.054 356.87,215.721 335.5,215.5C 335.5,218.167 335.5,220.833 335.5,223.5C 319.5,223.5 303.5,223.5 287.5,223.5C 287.5,225.5 287.5,227.5 287.5,229.5C 271.535,230.831 255.535,231.498 239.5,231.5C 239.5,234.167 239.5,236.833 239.5,239.5C 222.167,239.5 204.833,239.5 187.5,239.5C 187.5,240.833 187.5,242.167 187.5,243.5C 188.822,243.33 189.989,243.663 191,244.5C 191.667,246.833 191.667,249.167 191,251.5C 190.676,249.431 189.842,249.098 188.5,250.5C 188.26,249.163 187.76,247.497 187,245.5C 185,244.833 183.667,243.5 183,241.5C 182.282,242.451 181.449,242.617 180.5,242C 181.711,241.107 181.711,240.274 180.5,239.5C 179.094,240.668 177.928,240.335 177,238.5C 174.086,235.755 172.252,232.421 171.5,228.5C 168.213,225.924 165.38,222.924 163,219.5C 157.333,210.5 151.667,201.5 146,192.5C 145.329,191.748 144.496,191.414 143.5,191.5C 140.812,186.125 138.146,180.791 135.5,175.5C 124.479,151.625 114.146,127.459 104.5,103C 105.252,102.329 105.586,101.496 105.5,100.5C 106.239,100.369 106.906,100.536 107.5,101C 106.862,102.707 106.862,104.54 107.5,106.5C 211.972,107.566 314.639,107.566 415.5,106.5C 415.351,105.448 415.517,104.448 416,103.5C 416.667,107.5 417.333,107.5 418,103.5C 418.667,107.5 419.333,107.5 420,103.5C 420.667,107.5 421.333,107.5 422,103.5C 422.914,107.185 423.581,106.852 424,102.5C 424.667,107.833 425.333,107.833 426,102.5C 426.667,107.833 427.333,107.833 428,102.5C 428.818,107.794 429.318,107.794 429.5,102.5C 445.847,102.167 462.18,102.501 478.5,103.5C 480.852,105.874 482.852,105.374 484.5,102C 442.83,101.325 401.164,101.492 359.5,102.5C 346.149,102.444 332.816,101.944 319.5,101C 373.002,100.833 426.335,100.333 479.5,99.5 Z"/></g>
<g><path style="opacity:1" fill="#2abbe6" d="M 483.5,99.5 C 490.392,100.556 497.059,102.223 503.5,104.5C 505.819,104.992 507.819,105.992 509.5,107.5C 509.833,108.167 510.167,108.833 510.5,109.5C 508.833,109.5 507.167,109.5 505.5,109.5C 505.64,107.876 504.973,106.71 503.5,106C 499.804,106.4 496.138,106.233 492.5,105.5C 488.622,104.899 488.622,104.065 492.5,103C 489.135,102.495 486.135,101.328 483.5,99.5 Z"/></g>
<g><path style="opacity:0.02" fill="#ccf9ff" d="M 47.5,104.5 C 47.5,104.833 47.5,105.167 47.5,105.5C 46.1667,105.833 44.8333,106.167 43.5,106.5C 44.1834,104.824 45.5168,104.157 47.5,104.5 Z"/></g>
<g><path style="opacity:0.031" fill="#c7fbfe" d="M 509.5,107.5 C 511.5,107.5 512.5,108.5 512.5,110.5C 511.833,110.167 511.167,109.833 510.5,109.5C 510.167,108.833 509.833,108.167 509.5,107.5 Z"/></g>
<g><path style="opacity:1" fill="#00bcf0" d="M 109.5,109.5 C 198.169,109.167 286.836,109.5 375.5,110.5C 335.61,117.153 295.61,123.153 255.5,128.5C 251.5,129.5 247.5,130.5 243.5,131.5C 228.778,132.508 214.111,133.841 199.5,135.5C 199.5,136.5 199.5,137.5 199.5,138.5C 181.994,139.676 164.661,142.01 147.5,145.5C 140.847,146.166 134.181,146.666 127.5,147C 126.584,147.374 125.75,147.874 125,148.5C 125.32,145.54 125.32,142.54 125,139.5C 124.667,139.833 124.333,140.167 124,140.5C 122.26,138.816 121.094,136.982 120.5,135C 119.552,134.517 118.552,134.351 117.5,134.5C 118.036,131.335 117.203,128.669 115,126.5C 114.689,124.444 114.189,122.444 113.5,120.5C 113.709,119.914 114.043,119.414 114.5,119C 113.198,115.577 111.531,112.41 109.5,109.5 Z"/></g>
<g><path style="opacity:1" fill="#b8fcff" d="M 41.5,107.5 C 40.0892,109.914 38.0892,111.581 35.5,112.5C 36.9108,110.086 38.9108,108.419 41.5,107.5 Z"/></g>
<g><path style="opacity:0.161" fill="#c1fdff" d="M 512.5,110.5 C 514.179,110.285 515.179,110.952 515.5,112.5C 513.973,112.573 512.973,111.906 512.5,110.5 Z"/></g>
<g><path style="opacity:1" fill="#c9faff" d="M 35.5,112.5 C 34.8333,113.833 33.8333,114.833 32.5,115.5C 32.5,113.5 33.5,112.5 35.5,112.5 Z"/></g>
<g><path style="opacity:1" fill="#bdf7fd" d="M 518.5,115.5 C 520.914,116.911 522.581,118.911 523.5,121.5C 521.086,120.089 519.419,118.089 518.5,115.5 Z"/></g>
<g><path style="opacity:1" fill="#baf3fe" d="M 32.5,115.5 C 31.5806,118.089 29.914,120.089 27.5,121.5C 28.4194,118.911 30.086,116.911 32.5,115.5 Z"/></g>
<g><path style="opacity:1" fill="#31afda" d="M 47.5,105.5 C 41.1864,111.809 34.5198,117.809 27.5,123.5C 27.5,122.833 27.5,122.167 27.5,121.5C 29.914,120.089 31.5806,118.089 32.5,115.5C 33.8333,114.833 34.8333,113.833 35.5,112.5C 38.0892,111.581 40.0892,109.914 41.5,107.5C 41.8417,106.662 42.5084,106.328 43.5,106.5C 44.8333,106.167 46.1667,105.833 47.5,105.5 Z"/></g>
<g><path style="opacity:1" fill="#b7f3fe" d="M 523.5,121.5 C 524.906,121.973 525.573,122.973 525.5,124.5C 524.094,124.027 523.427,123.027 523.5,121.5 Z"/></g>
<g><path style="opacity:1" fill="#a8eafd" d="M 27.5,121.5 C 27.5,122.167 27.5,122.833 27.5,123.5C 26.0148,125.934 24.3481,128.267 22.5,130.5C 22.8891,126.716 24.5558,123.716 27.5,121.5 Z"/></g>
<g><path style="opacity:0.071" fill="#cefaff" d="M 525.5,124.5 C 526.906,124.973 527.573,125.973 527.5,127.5C 526.094,127.027 525.427,126.027 525.5,124.5 Z"/></g>
<g><path style="opacity:1" fill="#00acee" d="M 131.5,170.5 C 131.5,172.167 131.5,173.833 131.5,175.5C 130.167,175.5 128.833,175.5 127.5,175.5C 127.5,176.5 127.5,177.5 127.5,178.5C 122.167,179.167 116.833,179.833 111.5,180.5C 111.5,181.5 111.5,182.5 111.5,183.5C 106.167,183.5 100.833,183.5 95.5,183.5C 95.5,185.167 95.5,186.833 95.5,188.5C 92.8333,188.5 90.1667,188.5 87.5,188.5C 87.5,189.5 87.5,190.5 87.5,191.5C 79.5682,192.824 71.5682,193.491 63.5,193.5C 63.5,194.5 63.5,195.5 63.5,196.5C 60.8333,196.5 58.1667,196.5 55.5,196.5C 55.5,197.5 55.5,198.5 55.5,199.5C 50.1667,200.167 44.8333,200.833 39.5,201.5C 39.5,202.5 39.5,203.5 39.5,204.5C 36.2893,204.012 33.456,204.679 31,206.5C 29.9429,203.793 29.4429,200.96 29.5,198C 29.9221,194.414 30.5888,190.914 31.5,187.5C 36.8333,187.5 42.1667,187.5 47.5,187.5C 47.5,186.167 47.5,184.833 47.5,183.5C 52.8333,183.5 58.1667,183.5 63.5,183.5C 63.5,180.833 63.5,178.167 63.5,175.5C 58.1667,175.5 52.8333,175.5 47.5,175.5C 47.5,176.833 47.5,178.167 47.5,179.5C 41.6049,178.946 35.9383,179.612 30.5,181.5C 29.5108,177.893 29.1774,174.226 29.5,170.5C 29.5774,169.25 30.244,168.417 31.5,168C 29.8216,165.142 28.8216,161.976 28.5,158.5C 29.325,157.614 30.325,157.281 31.5,157.5C 31.5,160.167 31.5,162.833 31.5,165.5C 36.8333,165.5 42.1667,165.5 47.5,165.5C 47.5,163.5 47.5,161.5 47.5,159.5C 55.5,159.5 63.5,159.5 71.5,159.5C 71.5,158.167 71.5,156.833 71.5,155.5C 74.1667,155.5 76.8333,155.5 79.5,155.5C 79.5,154.167 79.5,152.833 79.5,151.5C 90.3466,151.453 101.013,150.119 111.5,147.5C 111.334,142.821 111.501,138.155 112,133.5C 112.5,134.5 113,135.5 113.5,136.5C 113.521,138.602 113.187,140.768 112.5,143C 113.744,143.456 114.577,142.956 115,141.5C 116.667,142.833 118.333,144.167 120,145.5C 121.309,150.066 121.809,154.733 121.5,159.5C 119.5,159.5 117.5,159.5 115.5,159.5C 115.5,157.5 115.5,155.5 115.5,153.5C 114.167,153.5 112.833,153.5 111.5,153.5C 111.5,158.167 111.5,162.833 111.5,167.5C 117.303,168.087 122.803,167.42 128,165.5C 129.189,167.233 130.356,168.9 131.5,170.5 Z"/></g>
<g><path style="opacity:1" fill="#00aaeb" d="M 29.5,170.5 C 29.1774,174.226 29.5108,177.893 30.5,181.5C 35.9383,179.612 41.6049,178.946 47.5,179.5C 47.5,178.167 47.5,176.833 47.5,175.5C 52.8333,175.5 58.1667,175.5 63.5,175.5C 63.5,178.167 63.5,180.833 63.5,183.5C 58.1667,183.5 52.8333,183.5 47.5,183.5C 47.5,184.833 47.5,186.167 47.5,187.5C 42.1667,187.5 36.8333,187.5 31.5,187.5C 30.5888,190.914 29.9221,194.414 29.5,198C 29.4429,200.96 29.9429,203.793 31,206.5C 33.456,204.679 36.2893,204.012 39.5,204.5C 39.5,203.5 39.5,202.5 39.5,201.5C 44.8333,200.833 50.1667,200.167 55.5,199.5C 55.5,198.5 55.5,197.5 55.5,196.5C 58.1667,196.5 60.8333,196.5 63.5,196.5C 63.5,195.5 63.5,194.5 63.5,193.5C 71.5682,193.491 79.5682,192.824 87.5,191.5C 87.5,190.5 87.5,189.5 87.5,188.5C 90.1667,188.5 92.8333,188.5 95.5,188.5C 95.5,186.833 95.5,185.167 95.5,183.5C 100.833,183.5 106.167,183.5 111.5,183.5C 111.5,182.5 111.5,181.5 111.5,180.5C 116.833,179.833 122.167,179.167 127.5,178.5C 127.5,177.5 127.5,176.5 127.5,175.5C 128.833,175.5 130.167,175.5 131.5,175.5C 131.5,173.833 131.5,172.167 131.5,170.5C 132.691,172.327 134.025,173.993 135.5,175.5C 138.146,180.791 140.812,186.125 143.5,191.5C 145.495,195.484 147.995,199.151 151,202.5C 151.605,204.635 151.105,204.969 149.5,203.5C 149.217,202.711 148.717,202.044 148,201.5C 146.644,202.38 145.144,202.714 143.5,202.5C 143.5,204.167 143.5,205.833 143.5,207.5C 138.167,207.5 132.833,207.5 127.5,207.5C 127.5,208.833 127.5,210.167 127.5,211.5C 119.5,212.833 111.5,214.167 103.5,215.5C 103.5,216.833 103.5,218.167 103.5,219.5C 92.7314,220.179 82.0648,221.513 71.5,223.5C 71.5,224.833 71.5,226.167 71.5,227.5C 63.5,228.833 55.5,230.167 47.5,231.5C 47.5,232.833 47.5,234.167 47.5,235.5C 42.1667,235.833 36.8333,236.167 31.5,236.5C 31.5,237.5 31.5,238.5 31.5,239.5C 29.8333,239.5 28.1667,239.5 26.5,239.5C 26.6665,228.828 26.4998,218.161 26,207.5C 24.6208,223.475 23.6208,239.475 23,255.5C 22.6667,250.5 22.3333,245.5 22,240.5C 21.829,248.344 21.329,256.011 20.5,263.5C 20.8302,244.992 20.4968,226.659 19.5,208.5C 19.5,202.833 19.5,197.167 19.5,191.5C 21.1667,191.5 22.8333,191.5 24.5,191.5C 24.1234,186.677 23.2901,182.011 22,177.5C 21.6667,179.833 21.3333,182.167 21,184.5C 20.2825,178.775 20.6159,173.109 22,167.5C 22.3333,168.833 22.6667,170.167 23,171.5C 23.2492,170.376 23.7492,169.376 24.5,168.5C 26.0152,170.547 26.8485,172.881 27,175.5C 27.0496,173.256 27.8829,171.589 29.5,170.5 Z"/></g>
<g><path style="opacity:1" fill="#01b1ee" d="M 532.5,146.5 C 532.5,236.5 532.5,326.5 532.5,416.5C 532.823,423.022 532.49,429.355 531.5,435.5C 531.824,428.646 531.491,421.979 530.5,415.5C 530.667,393.164 530.5,370.831 530,348.5C 528.255,342.876 528.088,337.21 529.5,331.5C 529.406,329.077 528.906,326.744 528,324.5C 527.5,330.825 527.334,337.158 527.5,343.5C 522.167,343.5 516.833,343.5 511.5,343.5C 511.5,344.833 511.5,346.167 511.5,347.5C 508.833,347.5 506.167,347.5 503.5,347.5C 503.5,348.833 503.5,350.167 503.5,351.5C 490.137,351.947 476.803,351.947 463.5,351.5C 463.5,352.833 463.5,354.167 463.5,355.5C 454.279,357.47 444.945,358.803 435.5,359.5C 423.509,360.502 411.509,360.502 399.5,359.5C 399.5,362.167 399.5,364.833 399.5,367.5C 388.833,367.5 378.167,367.5 367.5,367.5C 367.5,368.5 367.5,369.5 367.5,370.5C 364.472,370.661 361.639,369.994 359,368.5C 356.711,369.619 354.545,370.953 352.5,372.5C 351.376,370.631 350.543,368.631 350,366.5C 348.632,367.993 348.465,369.493 349.5,371C 346.676,371.33 344.009,372.164 341.5,373.5C 340.151,373.154 338.817,372.821 337.5,372.5C 333.894,369.864 329.894,368.031 325.5,367C 324.5,366 323.5,365 322.5,364C 318.981,363.605 315.648,362.605 312.5,361C 311.929,359.795 311.262,358.628 310.5,357.5C 305.246,354.705 299.913,352.205 294.5,350C 292.833,348.333 291.167,346.667 289.5,345C 283.007,341.254 276.674,337.254 270.5,333C 269.167,332.333 267.833,332.333 266.5,333C 262.558,336.787 257.891,338.954 252.5,339.5C 256.803,337.013 261.136,334.513 265.5,332C 268.726,330.628 272.059,329.462 275.5,328.5C 284.703,332.603 293.703,336.936 302.5,341.5C 306.054,343.202 308.887,342.202 311,338.5C 311.801,335.633 311.634,332.966 310.5,330.5C 310.236,324.578 309.236,318.911 307.5,313.5C 307.335,310.15 307.502,306.817 308,303.5C 308.748,301.249 310.248,299.916 312.5,299.5C 314.044,299.297 315.378,298.63 316.5,297.5C 317.791,299.097 319.291,300.43 321,301.5C 324.384,298.421 323.551,297.087 318.5,297.5C 318.561,294.27 320.228,292.437 323.5,292C 324.212,289.119 325.878,286.952 328.5,285.5C 329.466,283.604 329.799,281.604 329.5,279.5C 331.867,278.836 333.867,277.503 335.5,275.5C 334.081,273.085 332.415,272.919 330.5,275C 331.647,276.281 331.313,276.614 329.5,276C 329.253,274.187 328.92,272.353 328.5,270.5C 327.833,271.167 327.167,271.833 326.5,272.5C 321.725,270.792 316.725,269.959 311.5,270C 313.88,268.243 316.38,268.077 319,269.5C 320.682,268.135 320.849,266.635 319.5,265C 317.165,264.493 315.165,265.16 313.5,267C 308.166,267.567 302.833,268.067 297.5,268.5C 295.938,268.267 294.605,267.6 293.5,266.5C 293.5,266.167 293.5,265.833 293.5,265.5C 292.464,263.609 292.464,261.776 293.5,260C 296.833,259.667 300.167,259.333 303.5,259C 300.835,257.799 298.002,256.965 295,256.5C 292.922,257.943 292.089,257.276 292.5,254.5C 291.167,254.5 289.833,254.5 288.5,254.5C 287.655,251.174 287.155,247.84 287,244.5C 287.576,241.876 288.91,241.209 291,242.5C 291.692,241.975 292.192,241.308 292.5,240.5C 290.293,239.365 287.96,238.699 285.5,238.5C 285.5,239.833 285.5,241.167 285.5,242.5C 284.167,242.5 282.833,242.5 281.5,242.5C 281.5,241.833 281.167,241.5 280.5,241.5C 280.5,240.5 280.5,239.5 280.5,238.5C 275.821,238.334 271.155,238.501 266.5,239C 265.022,241.039 263.022,241.872 260.5,241.5C 260.5,240.5 260.5,239.5 260.5,238.5C 259.5,238.5 258.5,238.5 257.5,238.5C 259.018,242.701 261.018,246.701 263.5,250.5C 260.718,254.369 258.885,258.702 258,263.5C 256.488,262.743 255.154,261.743 254,260.5C 253.586,260.957 253.086,261.291 252.5,261.5C 251.15,260.05 249.484,259.383 247.5,259.5C 247.5,260.833 247.5,262.167 247.5,263.5C 244.482,263.335 241.482,263.502 238.5,264C 239.337,265.011 239.67,266.178 239.5,267.5C 243.574,267.233 247.241,265.9 250.5,263.5C 252.548,264.083 254.381,264.083 256,263.5C 256.717,264.044 257.217,264.711 257.5,265.5C 256.738,267.262 255.404,268.262 253.5,268.5C 245.197,268.773 237.197,270.106 229.5,272.5C 228.29,272.932 227.29,273.599 226.5,274.5C 223.713,275.378 222.38,277.378 222.5,280.5C 222.628,282.955 223.628,284.955 225.5,286.5C 224.833,288.5 224.167,290.5 223.5,292.5C 225.262,292.643 226.929,292.309 228.5,291.5C 229.809,293.24 229.476,294.573 227.5,295.5C 222.202,292.197 217.202,288.53 212.5,284.5C 206.039,276.523 199.373,268.857 192.5,261.5C 191.841,259.862 191.174,258.195 190.5,256.5C 186.911,254.035 183.744,251.035 181,247.5C 177.586,242.934 174.42,238.268 171.5,233.5C 167.753,227.679 163.753,222.012 159.5,216.5C 157.253,215.755 155.42,214.422 154,212.5C 152.962,209.185 151.462,206.185 149.5,203.5C 151.105,204.969 151.605,204.635 151,202.5C 147.995,199.151 145.495,195.484 143.5,191.5C 144.496,191.414 145.329,191.748 146,192.5C 151.667,201.5 157.333,210.5 163,219.5C 165.38,222.924 168.213,225.924 171.5,228.5C 172.252,232.421 174.086,235.755 177,238.5C 177.928,240.335 179.094,240.668 180.5,239.5C 181.711,240.274 181.711,241.107 180.5,242C 181.449,242.617 182.282,242.451 183,241.5C 183.667,243.5 185,244.833 187,245.5C 187.76,247.497 188.26,249.163 188.5,250.5C 189.842,249.098 190.676,249.431 191,251.5C 191.667,249.167 191.667,246.833 191,244.5C 189.989,243.663 188.822,243.33 187.5,243.5C 187.5,242.167 187.5,240.833 187.5,239.5C 204.833,239.5 222.167,239.5 239.5,239.5C 239.5,236.833 239.5,234.167 239.5,231.5C 255.535,231.498 271.535,230.831 287.5,229.5C 287.5,227.5 287.5,225.5 287.5,223.5C 303.5,223.5 319.5,223.5 335.5,223.5C 335.5,220.833 335.5,218.167 335.5,215.5C 356.87,215.721 378.204,215.054 399.5,213.5C 399.5,211.5 399.5,209.5 399.5,207.5C 415.5,207.5 431.5,207.5 447.5,207.5C 447.5,204.833 447.5,202.167 447.5,199.5C 468.833,198.833 490.167,198.167 511.5,197.5C 511.5,195.5 511.5,193.5 511.5,191.5C 516.833,191.5 522.167,191.5 527.5,191.5C 527.334,186.156 527.501,180.823 528,175.5C 529.475,196.724 530.475,218.058 531,239.5C 531.168,208.331 531.668,177.331 532.5,146.5 Z"/></g>
<g><path style="opacity:1" fill="#00a6e8" d="M 149.5,203.5 C 151.462,206.185 152.962,209.185 154,212.5C 155.42,214.422 157.253,215.755 159.5,216.5C 163.753,222.012 167.753,227.679 171.5,233.5C 169.851,232.351 168.351,231.018 167,229.5C 166.5,229.833 166,230.167 165.5,230.5C 167.005,231.842 167.672,233.508 167.5,235.5C 162.167,235.5 156.833,235.5 151.5,235.5C 151.5,236.833 151.5,238.167 151.5,239.5C 143.5,239.5 135.5,239.5 127.5,239.5C 127.5,240.833 127.5,242.167 127.5,243.5C 124.833,243.5 122.167,243.5 119.5,243.5C 119.5,244.833 119.5,246.167 119.5,247.5C 114.167,247.5 108.833,247.5 103.5,247.5C 103.5,248.833 103.5,250.167 103.5,251.5C 100.833,251.5 98.1667,251.5 95.5,251.5C 95.5,252.833 95.5,254.167 95.5,255.5C 87.16,255.334 78.8267,255.5 70.5,256C 68.5,258.333 66.5,260.667 64.5,263C 58.8431,263.499 53.1764,263.666 47.5,263.5C 47.5,264.833 47.5,266.167 47.5,267.5C 44.8333,267.5 42.1667,267.5 39.5,267.5C 39.5,268.833 39.5,270.167 39.5,271.5C 36.8333,271.5 34.1667,271.5 31.5,271.5C 31.5318,281.995 30.8651,292.329 29.5,302.5C 28.4061,308.104 27.5728,313.771 27,319.5C 26.2211,307.462 25.2211,295.462 24,283.5C 23.3333,334.167 22.6667,334.167 22,283.5C 21.6667,295.5 21.3333,307.5 21,319.5C 20.5001,300.836 20.3334,282.17 20.5,263.5C 21.329,256.011 21.829,248.344 22,240.5C 22.3333,245.5 22.6667,250.5 23,255.5C 23.6208,239.475 24.6208,223.475 26,207.5C 26.4998,218.161 26.6665,228.828 26.5,239.5C 28.1667,239.5 29.8333,239.5 31.5,239.5C 31.5,238.5 31.5,237.5 31.5,236.5C 36.8333,236.167 42.1667,235.833 47.5,235.5C 47.5,234.167 47.5,232.833 47.5,231.5C 55.5,230.167 63.5,228.833 71.5,227.5C 71.5,226.167 71.5,224.833 71.5,223.5C 82.0648,221.513 92.7314,220.179 103.5,219.5C 103.5,218.167 103.5,216.833 103.5,215.5C 111.5,214.167 119.5,212.833 127.5,211.5C 127.5,210.167 127.5,208.833 127.5,207.5C 132.833,207.5 138.167,207.5 143.5,207.5C 143.5,205.833 143.5,204.167 143.5,202.5C 145.144,202.714 146.644,202.38 148,201.5C 148.717,202.044 149.217,202.711 149.5,203.5 Z"/></g>
<g><path style="opacity:1" fill="#00a3e6" d="M 171.5,233.5 C 174.42,238.268 177.586,242.934 181,247.5C 183.744,251.035 186.911,254.035 190.5,256.5C 191.174,258.195 191.841,259.862 192.5,261.5C 189.025,260.463 186.025,261.463 183.5,264.5C 175.481,265.84 167.481,267.173 159.5,268.5C 159.5,269.5 159.5,270.5 159.5,271.5C 154.167,272.167 148.833,272.833 143.5,273.5C 143.5,274.5 143.5,275.5 143.5,276.5C 138.167,276.5 132.833,276.5 127.5,276.5C 127.5,277.5 127.5,278.5 127.5,279.5C 122.167,279.5 116.833,279.5 111.5,279.5C 111.5,281.167 111.5,282.833 111.5,284.5C 108.833,284.5 106.167,284.5 103.5,284.5C 103.5,285.5 103.5,286.5 103.5,287.5C 98.1667,288.167 92.8333,288.833 87.5,289.5C 87.5,290.5 87.5,291.5 87.5,292.5C 79.4827,292.501 71.4827,292.834 63.5,293.5C 63.5,295.167 63.5,296.833 63.5,298.5C 58.1667,299.167 52.8333,299.833 47.5,300.5C 47.5,301.5 47.5,302.5 47.5,303.5C 41.137,303.673 35.137,303.339 29.5,302.5C 30.8651,292.329 31.5318,281.995 31.5,271.5C 34.1667,271.5 36.8333,271.5 39.5,271.5C 39.5,270.167 39.5,268.833 39.5,267.5C 42.1667,267.5 44.8333,267.5 47.5,267.5C 47.5,266.167 47.5,264.833 47.5,263.5C 53.1764,263.666 58.8431,263.499 64.5,263C 66.5,260.667 68.5,258.333 70.5,256C 78.8267,255.5 87.16,255.334 95.5,255.5C 95.5,254.167 95.5,252.833 95.5,251.5C 98.1667,251.5 100.833,251.5 103.5,251.5C 103.5,250.167 103.5,248.833 103.5,247.5C 108.833,247.5 114.167,247.5 119.5,247.5C 119.5,246.167 119.5,244.833 119.5,243.5C 122.167,243.5 124.833,243.5 127.5,243.5C 127.5,242.167 127.5,240.833 127.5,239.5C 135.5,239.5 143.5,239.5 151.5,239.5C 151.5,238.167 151.5,236.833 151.5,235.5C 156.833,235.5 162.167,235.5 167.5,235.5C 167.672,233.508 167.005,231.842 165.5,230.5C 166,230.167 166.5,229.833 167,229.5C 168.351,231.018 169.851,232.351 171.5,233.5 Z"/></g>
<g><path style="opacity:1" fill="#25b7eb" d="M 280.5,241.5 C 276.803,239.923 273.303,240.256 270,242.5C 266.23,249.707 262.73,257.041 259.5,264.5C 258.833,264.833 258.167,265.167 257.5,265.5C 257.217,264.711 256.717,264.044 256,263.5C 254.381,264.083 252.548,264.083 250.5,263.5C 247.241,265.9 243.574,267.233 239.5,267.5C 239.67,266.178 239.337,265.011 238.5,264C 241.482,263.502 244.482,263.335 247.5,263.5C 247.5,262.167 247.5,260.833 247.5,259.5C 249.484,259.383 251.15,260.05 252.5,261.5C 253.086,261.291 253.586,260.957 254,260.5C 255.154,261.743 256.488,262.743 258,263.5C 258.885,258.702 260.718,254.369 263.5,250.5C 261.018,246.701 259.018,242.701 257.5,238.5C 258.5,238.5 259.5,238.5 260.5,238.5C 260.5,239.5 260.5,240.5 260.5,241.5C 263.022,241.872 265.022,241.039 266.5,239C 271.155,238.501 275.821,238.334 280.5,238.5C 280.5,239.5 280.5,240.5 280.5,241.5 Z"/></g>
<g><path style="opacity:1" fill="#fcfefd" d="M 280.5,241.5 C 281.167,241.5 281.5,241.833 281.5,242.5C 284.506,247.854 287.006,253.521 289,259.5C 290.594,261.526 292.094,263.526 293.5,265.5C 293.5,265.833 293.5,266.167 293.5,266.5C 293.539,267.583 293.873,268.583 294.5,269.5C 297.428,270.484 300.428,270.817 303.5,270.5C 307.373,272.43 311.706,273.097 316.5,272.5C 318.635,274.369 321.302,275.036 324.5,274.5C 326.101,277.584 326.768,280.917 326.5,284.5C 321.833,289.5 317.167,294.5 312.5,299.5C 310.248,299.916 308.748,301.249 308,303.5C 307.502,306.817 307.335,310.15 307.5,313.5C 307.976,321.826 308.309,330.16 308.5,338.5C 306.967,340.245 304.967,341.245 302.5,341.5C 293.703,336.936 284.703,332.603 275.5,328.5C 272.059,329.462 268.726,330.628 265.5,332C 261.136,334.513 256.803,337.013 252.5,339.5C 248.229,342.2 244.563,341.533 241.5,337.5C 240.631,335.283 240.298,332.95 240.5,330.5C 241.222,330.082 241.722,329.416 242,328.5C 242.498,325.183 242.665,321.85 242.5,318.5C 243.833,313.5 243.833,308.5 242.5,303.5C 237.613,298.272 232.613,292.939 227.5,287.5C 227.662,285.473 227.495,283.473 227,281.5C 225.768,284.23 224.935,284.063 224.5,281C 225.033,278.774 225.7,276.607 226.5,274.5C 236.268,273.737 245.935,272.237 255.5,270C 257.928,268.982 259.262,267.148 259.5,264.5C 262.73,257.041 266.23,249.707 270,242.5C 273.303,240.256 276.803,239.923 280.5,241.5 Z"/></g>
<g><path style="opacity:1" fill="#21b4e9" d="M 293.5,265.5 C 292.094,263.526 290.594,261.526 289,259.5C 287.006,253.521 284.506,247.854 281.5,242.5C 282.833,242.5 284.167,242.5 285.5,242.5C 285.5,241.167 285.5,239.833 285.5,238.5C 287.96,238.699 290.293,239.365 292.5,240.5C 292.192,241.308 291.692,241.975 291,242.5C 288.91,241.209 287.576,241.876 287,244.5C 287.155,247.84 287.655,251.174 288.5,254.5C 289.833,254.5 291.167,254.5 292.5,254.5C 292.089,257.276 292.922,257.943 295,256.5C 298.002,256.965 300.835,257.799 303.5,259C 300.167,259.333 296.833,259.667 293.5,260C 292.464,261.776 292.464,263.609 293.5,265.5 Z"/></g>
<g><path style="opacity:1" fill="#00a0e2" d="M 19.5,208.5 C 20.4968,226.659 20.8302,244.992 20.5,263.5C 20.3334,282.17 20.5001,300.836 21,319.5C 21.3333,307.5 21.6667,295.5 22,283.5C 22.6667,334.167 23.3333,334.167 24,283.5C 25.2211,295.462 26.2211,307.462 27,319.5C 27.5728,313.771 28.4061,308.104 29.5,302.5C 35.137,303.339 41.137,303.673 47.5,303.5C 47.5,302.5 47.5,301.5 47.5,300.5C 52.8333,299.833 58.1667,299.167 63.5,298.5C 63.5,296.833 63.5,295.167 63.5,293.5C 71.4827,292.834 79.4827,292.501 87.5,292.5C 87.5,291.5 87.5,290.5 87.5,289.5C 92.8333,288.833 98.1667,288.167 103.5,287.5C 103.5,286.5 103.5,285.5 103.5,284.5C 106.167,284.5 108.833,284.5 111.5,284.5C 111.5,282.833 111.5,281.167 111.5,279.5C 116.833,279.5 122.167,279.5 127.5,279.5C 127.5,278.5 127.5,277.5 127.5,276.5C 132.833,276.5 138.167,276.5 143.5,276.5C 143.5,275.5 143.5,274.5 143.5,273.5C 148.833,272.833 154.167,272.167 159.5,271.5C 159.5,270.5 159.5,269.5 159.5,268.5C 167.481,267.173 175.481,265.84 183.5,264.5C 186.025,261.463 189.025,260.463 192.5,261.5C 199.373,268.857 206.039,276.523 212.5,284.5C 217.202,288.53 222.202,292.197 227.5,295.5C 228.879,298.047 230.546,298.047 232.5,295.5C 233.59,296.391 233.59,297.391 232.5,298.5C 232.977,299.478 233.643,300.311 234.5,301C 237.382,301.272 240.049,302.106 242.5,303.5C 243.833,308.5 243.833,313.5 242.5,318.5C 242.789,315.351 242.289,312.351 241,309.5C 238.54,308.042 236.373,306.209 234.5,304C 233.552,303.517 232.552,303.351 231.5,303.5C 231.5,304.5 231.5,305.5 231.5,306.5C 226.404,308.262 221.07,308.929 215.5,308.5C 215.5,309.5 215.5,310.5 215.5,311.5C 210.167,312.167 204.833,312.833 199.5,313.5C 199.5,314.5 199.5,315.5 199.5,316.5C 196.833,316.5 194.167,316.5 191.5,316.5C 191.5,317.5 191.5,318.5 191.5,319.5C 186.167,320.167 180.833,320.833 175.5,321.5C 175.5,322.5 175.5,323.5 175.5,324.5C 170.167,324.5 164.833,324.5 159.5,324.5C 159.5,325.5 159.5,326.5 159.5,327.5C 154.167,328.167 148.833,328.833 143.5,329.5C 143.5,330.5 143.5,331.5 143.5,332.5C 140.833,332.5 138.167,332.5 135.5,332.5C 135.5,333.5 135.5,334.5 135.5,335.5C 130.167,336.167 124.833,336.833 119.5,337.5C 119.5,338.5 119.5,339.5 119.5,340.5C 114.167,340.5 108.833,340.5 103.5,340.5C 103.5,341.5 103.5,342.5 103.5,343.5C 98.1667,344.167 92.8333,344.833 87.5,345.5C 87.5,346.5 87.5,347.5 87.5,348.5C 84.8333,348.5 82.1667,348.5 79.5,348.5C 79.5,349.5 79.5,350.5 79.5,351.5C 74.1667,352.167 68.8333,352.833 63.5,353.5C 63.5,354.5 63.5,355.5 63.5,356.5C 58.1667,356.5 52.8333,356.5 47.5,356.5C 47.5,357.5 47.5,358.5 47.5,359.5C 42.1667,360.167 36.8333,360.833 31.5,361.5C 31.719,362.675 31.3857,363.675 30.5,364.5C 29.671,359.533 29.171,354.533 29,349.5C 27.2447,363.446 26.4114,377.446 26.5,391.5C 25.8334,382.658 25.1667,373.658 24.5,364.5C 23.6675,375.819 23.1675,387.152 23,398.5C 22.6667,396.167 22.3333,393.833 22,391.5C 20.5968,404.889 20.4302,418.222 21.5,431.5C 19.5031,357.507 18.8364,283.174 19.5,208.5 Z"/></g>
<g><path style="opacity:1" fill="#1cb1e4" d="M 312.5,299.5 C 317.167,294.5 321.833,289.5 326.5,284.5C 327.117,284.389 327.617,284.056 328,283.5C 328.667,281.5 328.667,279.5 328,277.5C 327.578,275.574 326.411,274.574 324.5,274.5C 322.22,272.777 319.553,272.111 316.5,272.5C 312.382,271.291 308.049,270.624 303.5,270.5C 301.5,269.833 299.5,269.167 297.5,268.5C 302.833,268.067 308.166,267.567 313.5,267C 315.165,265.16 317.165,264.493 319.5,265C 320.849,266.635 320.682,268.135 319,269.5C 316.38,268.077 313.88,268.243 311.5,270C 316.725,269.959 321.725,270.792 326.5,272.5C 327.167,271.833 327.833,271.167 328.5,270.5C 328.92,272.353 329.253,274.187 329.5,276C 331.313,276.614 331.647,276.281 330.5,275C 332.415,272.919 334.081,273.085 335.5,275.5C 333.867,277.503 331.867,278.836 329.5,279.5C 329.799,281.604 329.466,283.604 328.5,285.5C 325.878,286.952 324.212,289.119 323.5,292C 320.228,292.437 318.561,294.27 318.5,297.5C 323.551,297.087 324.384,298.421 321,301.5C 319.291,300.43 317.791,299.097 316.5,297.5C 315.378,298.63 314.044,299.297 312.5,299.5 Z"/></g>
<g><path style="opacity:1" fill="#25a8d5" d="M 253.5,268.5 C 245.733,270.461 237.733,271.794 229.5,272.5C 237.197,270.106 245.197,268.773 253.5,268.5 Z"/></g>
<g><path style="opacity:1" fill="#cdf8fe" d="M 259.5,264.5 C 259.262,267.148 257.928,268.982 255.5,270C 245.935,272.237 236.268,273.737 226.5,274.5C 227.29,273.599 228.29,272.932 229.5,272.5C 237.733,271.794 245.733,270.461 253.5,268.5C 255.404,268.262 256.738,267.262 257.5,265.5C 258.167,265.167 258.833,264.833 259.5,264.5 Z"/></g>
<g><path style="opacity:1" fill="#c3f1fd" d="M 293.5,266.5 C 294.605,267.6 295.938,268.267 297.5,268.5C 299.5,269.167 301.5,269.833 303.5,270.5C 300.428,270.817 297.428,270.484 294.5,269.5C 293.873,268.583 293.539,267.583 293.5,266.5 Z"/></g>
<g><path style="opacity:1" fill="#c4f7fe" d="M 303.5,270.5 C 308.049,270.624 312.382,271.291 316.5,272.5C 311.706,273.097 307.373,272.43 303.5,270.5 Z"/></g>
<g><path style="opacity:1" fill="#cffaff" d="M 316.5,272.5 C 319.553,272.111 322.22,272.777 324.5,274.5C 321.302,275.036 318.635,274.369 316.5,272.5 Z"/></g>
<g><path style="opacity:1" fill="#cdfaff" d="M 324.5,274.5 C 326.411,274.574 327.578,275.574 328,277.5C 328.667,279.5 328.667,281.5 328,283.5C 327.617,284.056 327.117,284.389 326.5,284.5C 326.768,280.917 326.101,277.584 324.5,274.5 Z"/></g>
<g><path style="opacity:1" fill="#dffcfd" d="M 226.5,274.5 C 225.7,276.607 225.033,278.774 224.5,281C 224.935,284.063 225.768,284.23 227,281.5C 227.495,283.473 227.662,285.473 227.5,287.5C 226.833,287.167 226.167,286.833 225.5,286.5C 223.628,284.955 222.628,282.955 222.5,280.5C 222.38,277.378 223.713,275.378 226.5,274.5 Z"/></g>
<g><path style="opacity:0.286" fill="#a3edfe" d="M 22.5,130.5 C 21.3637,135.904 20.0304,141.237 18.5,146.5C 18.3333,242.834 18.5,339.167 19,435.5C 19.1981,437.382 19.6981,439.048 20.5,440.5C 21.5193,446.891 23.5193,452.891 26.5,458.5C 21.35,451.857 18.5166,444.524 18,436.5C 17.3333,338.833 17.3333,241.167 18,143.5C 18.6493,138.713 20.1493,134.379 22.5,130.5 Z"/></g>
<g><path style="opacity:1" fill="#29b5e6" d="M 225.5,286.5 C 226.167,286.833 226.833,287.167 227.5,287.5C 232.613,292.939 237.613,298.272 242.5,303.5C 240.049,302.106 237.382,301.272 234.5,301C 233.643,300.311 232.977,299.478 232.5,298.5C 233.59,297.391 233.59,296.391 232.5,295.5C 230.546,298.047 228.879,298.047 227.5,295.5C 229.476,294.573 229.809,293.24 228.5,291.5C 226.929,292.309 225.262,292.643 223.5,292.5C 224.167,290.5 224.833,288.5 225.5,286.5 Z"/></g>
<g><path style="opacity:0.297" fill="#a0f2fe" d="M 527.5,127.5 C 530.008,132.43 531.841,137.763 533,143.5C 533.5,234.499 533.667,325.499 533.5,416.5C 533.167,416.5 532.833,416.5 532.5,416.5C 532.5,326.5 532.5,236.5 532.5,146.5C 530.636,140.236 528.969,133.903 527.5,127.5 Z"/></g>
<g><path style="opacity:1" fill="#009ddf" d="M 242.5,318.5 C 241.205,322.267 240.539,326.267 240.5,330.5C 239.848,331.449 239.514,332.615 239.5,334C 239.608,335.681 240.275,336.848 241.5,337.5C 244.563,341.533 248.229,342.2 252.5,339.5C 252.5,340.5 252.5,341.5 252.5,342.5C 248.833,342.5 245.167,342.5 241.5,342.5C 241.5,341.5 241.5,340.5 241.5,339.5C 239.876,339.36 238.71,340.027 238,341.5C 237.667,341.167 237.333,340.833 237,340.5C 238.207,338.086 238.54,335.419 238,332.5C 237.316,336.093 235.816,336.427 233.5,333.5C 232.692,333.808 232.025,334.308 231.5,335C 226.177,335.499 220.844,335.666 215.5,335.5C 215.5,336.833 215.5,338.167 215.5,339.5C 212.833,339.5 210.167,339.5 207.5,339.5C 207.5,340.833 207.5,342.167 207.5,343.5C 202.167,343.5 196.833,343.5 191.5,343.5C 191.5,344.833 191.5,346.167 191.5,347.5C 188.272,347.701 185.105,347.367 182,346.5C 179.953,347.609 177.787,348.276 175.5,348.5C 175.5,349.5 175.5,350.5 175.5,351.5C 170.167,351.5 164.833,351.5 159.5,351.5C 159.5,352.833 159.5,354.167 159.5,355.5C 156.833,355.5 154.167,355.5 151.5,355.5C 151.5,356.833 151.5,358.167 151.5,359.5C 140.8,361.855 130.133,363.521 119.5,364.5C 119.5,365.5 119.5,366.5 119.5,367.5C 114.167,367.5 108.833,367.5 103.5,367.5C 103.5,368.833 103.5,370.167 103.5,371.5C 100.833,371.5 98.1667,371.5 95.5,371.5C 95.5,372.833 95.5,374.167 95.5,375.5C 87.5,376.833 79.5,378.167 71.5,379.5C 71.5,380.833 71.5,382.167 71.5,383.5C 63.5,383.5 55.5,383.5 47.5,383.5C 47.5,384.833 47.5,386.167 47.5,387.5C 44.8333,387.5 42.1667,387.5 39.5,387.5C 39.5,388.833 39.5,390.167 39.5,391.5C 36.1667,391.5 32.8333,391.5 29.5,391.5C 29.3293,402.146 28.8293,402.146 28,391.5C 27.168,410.155 26.668,410.155 26.5,391.5C 26.4114,377.446 27.2447,363.446 29,349.5C 29.171,354.533 29.671,359.533 30.5,364.5C 31.3857,363.675 31.719,362.675 31.5,361.5C 36.8333,360.833 42.1667,360.167 47.5,359.5C 47.5,358.5 47.5,357.5 47.5,356.5C 52.8333,356.5 58.1667,356.5 63.5,356.5C 63.5,355.5 63.5,354.5 63.5,353.5C 68.8333,352.833 74.1667,352.167 79.5,351.5C 79.5,350.5 79.5,349.5 79.5,348.5C 82.1667,348.5 84.8333,348.5 87.5,348.5C 87.5,347.5 87.5,346.5 87.5,345.5C 92.8333,344.833 98.1667,344.167 103.5,343.5C 103.5,342.5 103.5,341.5 103.5,340.5C 108.833,340.5 114.167,340.5 119.5,340.5C 119.5,339.5 119.5,338.5 119.5,337.5C 124.833,336.833 130.167,336.167 135.5,335.5C 135.5,334.5 135.5,333.5 135.5,332.5C 138.167,332.5 140.833,332.5 143.5,332.5C 143.5,331.5 143.5,330.5 143.5,329.5C 148.833,328.833 154.167,328.167 159.5,327.5C 159.5,326.5 159.5,325.5 159.5,324.5C 164.833,324.5 170.167,324.5 175.5,324.5C 175.5,323.5 175.5,322.5 175.5,321.5C 180.833,320.833 186.167,320.167 191.5,319.5C 191.5,318.5 191.5,317.5 191.5,316.5C 194.167,316.5 196.833,316.5 199.5,316.5C 199.5,315.5 199.5,314.5 199.5,313.5C 204.833,312.833 210.167,312.167 215.5,311.5C 215.5,310.5 215.5,309.5 215.5,308.5C 221.07,308.929 226.404,308.262 231.5,306.5C 231.5,305.5 231.5,304.5 231.5,303.5C 232.552,303.351 233.552,303.517 234.5,304C 236.373,306.209 238.54,308.042 241,309.5C 242.289,312.351 242.789,315.351 242.5,318.5 Z"/></g>
<g><path style="opacity:1" fill="#b6e9fa" d="M 242.5,318.5 C 242.665,321.85 242.498,325.183 242,328.5C 241.722,329.416 241.222,330.082 240.5,330.5C 240.539,326.267 241.205,322.267 242.5,318.5 Z"/></g>
<g><path style="opacity:1" fill="#d6f8fe" d="M 307.5,313.5 C 309.236,318.911 310.236,324.578 310.5,330.5C 310.663,332.857 310.497,335.19 310,337.5C 309.617,338.056 309.117,338.389 308.5,338.5C 308.309,330.16 307.976,321.826 307.5,313.5 Z"/></g>
<g><path style="opacity:1" fill="#0099dc" d="M 252.5,339.5 C 257.891,338.954 262.558,336.787 266.5,333C 267.833,332.333 269.167,332.333 270.5,333C 276.674,337.254 283.007,341.254 289.5,345C 291.167,346.667 292.833,348.333 294.5,350C 299.913,352.205 305.246,354.705 310.5,357.5C 311.262,358.628 311.929,359.795 312.5,361C 315.648,362.605 318.981,363.605 322.5,364C 323.5,365 324.5,366 325.5,367C 329.894,368.031 333.894,369.864 337.5,372.5C 337.611,373.117 337.944,373.617 338.5,374C 343.85,374.527 348.516,376.527 352.5,380C 356.129,381.664 359.962,382.831 364,383.5C 365.03,383.836 365.53,384.503 365.5,385.5C 360.968,384.758 356.468,383.758 352,382.5C 349.461,383.602 346.961,383.602 344.5,382.5C 343.571,383.689 343.238,385.022 343.5,386.5C 332.724,387.528 322.057,389.195 311.5,391.5C 311.5,392.833 311.5,394.167 311.5,395.5C 300.731,396.179 290.065,397.513 279.5,399.5C 279.5,400.833 279.5,402.167 279.5,403.5C 271.5,404.833 263.5,406.167 255.5,407.5C 255.5,408.833 255.5,410.167 255.5,411.5C 244.731,412.179 234.065,413.513 223.5,415.5C 223.5,416.833 223.5,418.167 223.5,419.5C 215.5,420.833 207.5,422.167 199.5,423.5C 199.5,424.833 199.5,426.167 199.5,427.5C 194.167,427.833 188.833,428.167 183.5,428.5C 183.5,429.5 183.5,430.5 183.5,431.5C 180.833,431.5 178.167,431.5 175.5,431.5C 175.5,432.5 175.5,433.5 175.5,434.5C 164.724,435.528 154.057,437.195 143.5,439.5C 143.5,440.833 143.5,442.167 143.5,443.5C 138.167,443.833 132.833,444.167 127.5,444.5C 127.5,445.5 127.5,446.5 127.5,447.5C 114.167,450.167 100.833,452.833 87.5,455.5C 87.5,456.833 87.5,458.167 87.5,459.5C 82.1667,459.833 76.8333,460.167 71.5,460.5C 71.5,461.5 71.5,462.5 71.5,463.5C 67.2964,463.176 63.463,464.176 60,466.5C 59.5172,467.448 59.3505,468.448 59.5,469.5C 54.5463,469.435 49.713,468.768 45,467.5C 40.7892,468.538 37.4558,467.204 35,463.5C 34.3292,464.252 33.4959,464.586 32.5,464.5C 32.1667,464.5 31.8333,464.5 31.5,464.5C 31.219,461.237 29.5523,459.237 26.5,458.5C 23.5193,452.891 21.5193,446.891 20.5,440.5C 20.7038,437.482 21.0371,434.482 21.5,431.5C 20.4302,418.222 20.5968,404.889 22,391.5C 22.3333,393.833 22.6667,396.167 23,398.5C 23.1675,387.152 23.6675,375.819 24.5,364.5C 25.1667,373.658 25.8334,382.658 26.5,391.5C 26.668,410.155 27.168,410.155 28,391.5C 28.8293,402.146 29.3293,402.146 29.5,391.5C 32.8333,391.5 36.1667,391.5 39.5,391.5C 39.5,390.167 39.5,388.833 39.5,387.5C 42.1667,387.5 44.8333,387.5 47.5,387.5C 47.5,386.167 47.5,384.833 47.5,383.5C 55.5,383.5 63.5,383.5 71.5,383.5C 71.5,382.167 71.5,380.833 71.5,379.5C 79.5,378.167 87.5,376.833 95.5,375.5C 95.5,374.167 95.5,372.833 95.5,371.5C 98.1667,371.5 100.833,371.5 103.5,371.5C 103.5,370.167 103.5,368.833 103.5,367.5C 108.833,367.5 114.167,367.5 119.5,367.5C 119.5,366.5 119.5,365.5 119.5,364.5C 130.133,363.521 140.8,361.855 151.5,359.5C 151.5,358.167 151.5,356.833 151.5,355.5C 154.167,355.5 156.833,355.5 159.5,355.5C 159.5,354.167 159.5,352.833 159.5,351.5C 164.833,351.5 170.167,351.5 175.5,351.5C 175.5,350.5 175.5,349.5 175.5,348.5C 177.787,348.276 179.953,347.609 182,346.5C 185.105,347.367 188.272,347.701 191.5,347.5C 191.5,346.167 191.5,344.833 191.5,343.5C 196.833,343.5 202.167,343.5 207.5,343.5C 207.5,342.167 207.5,340.833 207.5,339.5C 210.167,339.5 212.833,339.5 215.5,339.5C 215.5,338.167 215.5,336.833 215.5,335.5C 220.844,335.666 226.177,335.499 231.5,335C 232.025,334.308 232.692,333.808 233.5,333.5C 235.816,336.427 237.316,336.093 238,332.5C 238.54,335.419 238.207,338.086 237,340.5C 237.333,340.833 237.667,341.167 238,341.5C 238.71,340.027 239.876,339.36 241.5,339.5C 241.5,340.5 241.5,341.5 241.5,342.5C 245.167,342.5 248.833,342.5 252.5,342.5C 252.5,341.5 252.5,340.5 252.5,339.5 Z"/></g>
<g><path style="opacity:1" fill="#82cfee" d="M 240.5,330.5 C 240.298,332.95 240.631,335.283 241.5,337.5C 240.275,336.848 239.608,335.681 239.5,334C 239.514,332.615 239.848,331.449 240.5,330.5 Z"/></g>
<g><path style="opacity:1" fill="#48b7de" d="M 310.5,330.5 C 311.634,332.966 311.801,335.633 311,338.5C 308.887,342.202 306.054,343.202 302.5,341.5C 304.967,341.245 306.967,340.245 308.5,338.5C 309.117,338.389 309.617,338.056 310,337.5C 310.497,335.19 310.663,332.857 310.5,330.5 Z"/></g>
<g><path style="opacity:1" fill="#00adec" d="M 413.5,399.5 C 407.476,398.901 401.476,398.068 395.5,397C 389.755,394.456 384.088,391.956 378.5,389.5C 377.952,388.312 377.619,387.145 377.5,386C 378.5,385.833 379.5,385.667 380.5,385.5C 386.71,387.234 393.044,387.901 399.5,387.5C 399.5,386.167 399.5,384.833 399.5,383.5C 394.167,383.5 388.833,383.5 383.5,383.5C 383.5,381.5 383.5,379.5 383.5,377.5C 399.465,376.169 415.465,375.502 431.5,375.5C 431.5,372.833 431.5,370.167 431.5,367.5C 447.5,367.5 463.5,367.5 479.5,367.5C 479.5,365.5 479.5,363.5 479.5,361.5C 495.465,360.169 511.465,359.502 527.5,359.5C 527.5,368.833 527.5,378.167 527.5,387.5C 516.833,387.5 506.167,387.5 495.5,387.5C 495.5,388.833 495.5,390.167 495.5,391.5C 484.833,391.5 474.167,391.5 463.5,391.5C 463.5,394.167 463.5,396.833 463.5,399.5C 453.04,399.209 442.706,399.709 432.5,401C 433.167,400.667 433.833,400.333 434.5,400C 427.586,399.814 420.753,399.314 414,398.5C 413.601,398.728 413.435,399.062 413.5,399.5 Z"/></g>
<g><path style="opacity:1" fill="#0096d9" d="M 365.5,385.5 C 369.788,386.988 374.121,388.322 378.5,389.5C 384.088,391.956 389.755,394.456 395.5,397C 401.476,398.068 407.476,398.901 413.5,399.5C 422.124,402.137 430.79,404.97 439.5,408C 454.268,410.238 468.935,412.571 483.5,415C 495.166,415.514 506.833,416.014 518.5,416.5C 522.681,416.499 526.681,416.166 530.5,415.5C 531.491,421.979 531.824,428.646 531.5,435.5C 531.192,439.595 530.359,443.595 529,447.5C 526.946,450.941 525.446,454.608 524.5,458.5C 524.5,459.167 524.167,459.5 523.5,459.5C 522.094,459.973 521.427,460.973 521.5,462.5C 519.833,463.5 518.5,464.833 517.5,466.5C 516.167,467.167 515.167,468.167 514.5,469.5C 514.5,470.167 514.167,470.5 513.5,470.5C 511.251,471.08 509.585,472.413 508.5,474.5C 507.486,475.674 506.153,476.34 504.5,476.5C 500.617,477.459 496.95,478.792 493.5,480.5C 351.509,481.482 209.509,481.816 67.5,481.5C 61.7183,481.128 56.0517,480.128 50.5,478.5C 48.9674,476.755 46.9674,475.755 44.5,475.5C 43.5084,475.672 42.8417,475.338 42.5,474.5C 41.4154,472.413 39.7488,471.08 37.5,470.5C 35.8333,469.5 34.5,468.167 33.5,466.5C 33.1667,465.833 32.8333,465.167 32.5,464.5C 33.4959,464.586 34.3292,464.252 35,463.5C 37.4558,467.204 40.7892,468.538 45,467.5C 49.713,468.768 54.5463,469.435 59.5,469.5C 59.3505,468.448 59.5172,467.448 60,466.5C 63.463,464.176 67.2964,463.176 71.5,463.5C 71.5,462.5 71.5,461.5 71.5,460.5C 76.8333,460.167 82.1667,459.833 87.5,459.5C 87.5,458.167 87.5,456.833 87.5,455.5C 100.833,452.833 114.167,450.167 127.5,447.5C 127.5,446.5 127.5,445.5 127.5,444.5C 132.833,444.167 138.167,443.833 143.5,443.5C 143.5,442.167 143.5,440.833 143.5,439.5C 154.057,437.195 164.724,435.528 175.5,434.5C 175.5,433.5 175.5,432.5 175.5,431.5C 178.167,431.5 180.833,431.5 183.5,431.5C 183.5,430.5 183.5,429.5 183.5,428.5C 188.833,428.167 194.167,427.833 199.5,427.5C 199.5,426.167 199.5,424.833 199.5,423.5C 207.5,422.167 215.5,420.833 223.5,419.5C 223.5,418.167 223.5,416.833 223.5,415.5C 234.065,413.513 244.731,412.179 255.5,411.5C 255.5,410.167 255.5,408.833 255.5,407.5C 263.5,406.167 271.5,404.833 279.5,403.5C 279.5,402.167 279.5,400.833 279.5,399.5C 290.065,397.513 300.731,396.179 311.5,395.5C 311.5,394.167 311.5,392.833 311.5,391.5C 322.057,389.195 332.724,387.528 343.5,386.5C 343.238,385.022 343.571,383.689 344.5,382.5C 346.961,383.602 349.461,383.602 352,382.5C 356.468,383.758 360.968,384.758 365.5,385.5 Z"/></g>
<g><path style="opacity:1" fill="#00abed" d="M 530.5,415.5 C 526.681,416.166 522.681,416.499 518.5,416.5C 506.833,416.014 495.166,415.514 483.5,415C 468.935,412.571 454.268,410.238 439.5,408C 430.79,404.97 422.124,402.137 413.5,399.5C 413.435,399.062 413.601,398.728 414,398.5C 420.753,399.314 427.586,399.814 434.5,400C 433.833,400.333 433.167,400.667 432.5,401C 442.706,399.709 453.04,399.209 463.5,399.5C 463.5,396.833 463.5,394.167 463.5,391.5C 474.167,391.5 484.833,391.5 495.5,391.5C 495.5,390.167 495.5,388.833 495.5,387.5C 506.167,387.5 516.833,387.5 527.5,387.5C 527.5,378.167 527.5,368.833 527.5,359.5C 511.465,359.502 495.465,360.169 479.5,361.5C 479.5,363.5 479.5,365.5 479.5,367.5C 463.5,367.5 447.5,367.5 431.5,367.5C 431.5,370.167 431.5,372.833 431.5,375.5C 415.465,375.502 399.465,376.169 383.5,377.5C 383.5,379.5 383.5,381.5 383.5,383.5C 388.833,383.5 394.167,383.5 399.5,383.5C 399.5,384.833 399.5,386.167 399.5,387.5C 393.044,387.901 386.71,387.234 380.5,385.5C 379.5,385.667 378.5,385.833 377.5,386C 377.619,387.145 377.952,388.312 378.5,389.5C 374.121,388.322 369.788,386.988 365.5,385.5C 365.53,384.503 365.03,383.836 364,383.5C 359.962,382.831 356.129,381.664 352.5,380C 348.516,376.527 343.85,374.527 338.5,374C 337.944,373.617 337.611,373.117 337.5,372.5C 338.817,372.821 340.151,373.154 341.5,373.5C 344.009,372.164 346.676,371.33 349.5,371C 348.465,369.493 348.632,367.993 350,366.5C 350.543,368.631 351.376,370.631 352.5,372.5C 354.545,370.953 356.711,369.619 359,368.5C 361.639,369.994 364.472,370.661 367.5,370.5C 367.5,369.5 367.5,368.5 367.5,367.5C 378.167,367.5 388.833,367.5 399.5,367.5C 399.5,364.833 399.5,362.167 399.5,359.5C 411.509,360.502 423.509,360.502 435.5,359.5C 444.945,358.803 454.279,357.47 463.5,355.5C 463.5,354.167 463.5,352.833 463.5,351.5C 476.803,351.947 490.137,351.947 503.5,351.5C 503.5,350.167 503.5,348.833 503.5,347.5C 506.167,347.5 508.833,347.5 511.5,347.5C 511.5,346.167 511.5,344.833 511.5,343.5C 516.833,343.5 522.167,343.5 527.5,343.5C 527.334,337.158 527.5,330.825 528,324.5C 528.906,326.744 529.406,329.077 529.5,331.5C 528.088,337.21 528.255,342.876 530,348.5C 530.5,370.831 530.667,393.164 530.5,415.5 Z"/></g>
<g><path style="opacity:1" fill="#1f94c5" d="M 18.5,146.5 C 19.4961,161.324 19.8294,176.324 19.5,191.5C 19.5,197.167 19.5,202.833 19.5,208.5C 18.8364,283.174 19.5031,357.507 21.5,431.5C 21.0371,434.482 20.7038,437.482 20.5,440.5C 19.6981,439.048 19.1981,437.382 19,435.5C 18.5,339.167 18.3333,242.834 18.5,146.5 Z"/></g>
<g><path style="opacity:0.277" fill="#abe7fb" d="M 532.5,416.5 C 532.833,416.5 533.167,416.5 533.5,416.5C 533.994,426.621 533.161,436.621 531,446.5C 529.582,451.01 527.415,455.01 524.5,458.5C 525.446,454.608 526.946,450.941 529,447.5C 530.359,443.595 531.192,439.595 531.5,435.5C 532.49,429.355 532.823,423.022 532.5,416.5 Z"/></g>
<g><path style="opacity:1" fill="#7fc2e3" d="M 26.5,458.5 C 29.5523,459.237 31.219,461.237 31.5,464.5C 29.1637,463.155 27.497,461.155 26.5,458.5 Z"/></g>
<g><path style="opacity:0.004" fill="#cbf4ff" d="M 523.5,459.5 C 523.573,461.027 522.906,462.027 521.5,462.5C 521.427,460.973 522.094,459.973 523.5,459.5 Z"/></g>
<g><path style="opacity:0.012" fill="#cefbff" d="M 31.5,464.5 C 31.8333,464.5 32.1667,464.5 32.5,464.5C 32.8333,465.167 33.1667,465.833 33.5,466.5C 32.1667,466.5 31.5,465.833 31.5,464.5 Z"/></g>
<g><path style="opacity:0.031" fill="#cef9ff" d="M 521.5,462.5 C 521.167,464.833 519.833,466.167 517.5,466.5C 518.5,464.833 519.833,463.5 521.5,462.5 Z"/></g>
<g><path style="opacity:0.012" fill="#d1fafe" d="M 517.5,466.5 C 517.5,468.5 516.5,469.5 514.5,469.5C 515.167,468.167 516.167,467.167 517.5,466.5 Z"/></g>
<g><path style="opacity:1" fill="#c4f6fe" d="M 37.5,470.5 C 39.7488,471.08 41.4154,472.413 42.5,474.5C 40.2512,473.92 38.5846,472.587 37.5,470.5 Z"/></g>
<g><path style="opacity:0.024" fill="#cdf8fe" d="M 513.5,470.5 C 512.415,472.587 510.749,473.92 508.5,474.5C 509.585,472.413 511.251,471.08 513.5,470.5 Z"/></g>
<g><path style="opacity:0.341" fill="#a9e0f1" d="M 44.5,475.5 C 46.9674,475.755 48.9674,476.755 50.5,478.5C 48.0326,478.245 46.0326,477.245 44.5,475.5 Z"/></g>
<g><path style="opacity:1" fill="#98d4ed" d="M 504.5,476.5 C 501.164,478.731 497.497,480.397 493.5,481.5C 493.5,481.167 493.5,480.833 493.5,480.5C 496.95,478.792 500.617,477.459 504.5,476.5 Z"/></g>
<g><path style="opacity:1" fill="#158cc1" d="M 493.5,480.5 C 493.5,480.833 493.5,481.167 493.5,481.5C 493.167,481.5 492.833,481.5 492.5,481.5C 350.676,482.82 209.009,482.82 67.5,481.5C 209.509,481.816 351.509,481.482 493.5,480.5 Z"/></g>
<g><path style="opacity:0.451" fill="#80cff3" d="M 50.5,478.5 C 56.0517,480.128 61.7183,481.128 67.5,481.5C 209.009,482.82 350.676,482.82 492.5,481.5C 488.44,482.544 484.273,483.544 480,484.5C 341.57,483.668 203.07,483.168 64.5,483C 59.3233,482.713 54.6566,481.213 50.5,478.5 Z"/></g>
</svg>
