<?xml version="1.0" encoding="UTF-8"?>
<!DOCTYPE svg PUBLIC "-//W3C//DTD SVG 1.1//EN" "http://www.w3.org/Graphics/SVG/1.1/DTD/svg11.dtd">
<svg xmlns="http://www.w3.org/2000/svg" version="1.1" width="50px" height="50px" style="shape-rendering:geometricPrecision; text-rendering:geometricPrecision; image-rendering:optimizeQuality; fill-rule:evenodd; clip-rule:evenodd" xmlns:xlink="http://www.w3.org/1999/xlink">
<g><path style="opacity:0.99" fill="#18a3e1" d="M 36.5,8.5 C 24.784,9.14439 13.4507,8.47773 2.5,6.5C 11.9003,4.23698 21.4003,2.23698 31,0.5C 36.1163,1.09137 37.9497,3.75803 36.5,8.5 Z"/></g>
<g><path style="opacity:0.998" fill="#11b8ef" d="M 2.5,6.5 C 13.4507,8.47773 24.784,9.14439 36.5,8.5C 39.5184,8.33537 42.5184,8.50204 45.5,9C 46.3333,9.83333 47.1667,10.6667 48,11.5C 48.4993,16.4889 48.6659,21.4889 48.5,26.5C 47.6805,23.6946 47.1805,20.6946 47,17.5C 46.5,18 46,18.5 45.5,19C 39.4334,19.3732 33.4334,20.2066 27.5,21.5C 26.2867,21.7472 25.62,22.4138 25.5,23.5C 23.5,24.8333 21.8333,26.5 20.5,28.5C 19.1943,27.0322 17.6943,25.6988 16,24.5C 14.6686,21.1662 12.8353,18.1662 10.5,15.5C 6.99395,14.9473 3.66062,14.9473 0.5,15.5C 0.920156,13.326 0.920156,11.326 0.5,9.5C 0.942417,8.26133 1.60908,7.26133 2.5,6.5 Z"/></g>
<g><path style="opacity:0.997" fill="#09b0ed" d="M 48.5,26.5 C 48.6662,32.5092 48.4995,38.5092 48,44.5C 47.7216,45.4158 47.2216,46.0825 46.5,46.5C 46.3573,44.7376 46.6906,43.0709 47.5,41.5C 42.6994,40.8181 38.0327,39.6514 33.5,38C 30.3793,36.6937 27.7126,34.8603 25.5,32.5C 27.2155,31.4261 28.2155,29.7594 28.5,27.5C 26.7118,26.7174 25.7118,25.3841 25.5,23.5C 25.62,22.4138 26.2867,21.7472 27.5,21.5C 33.4334,20.2066 39.4334,19.3732 45.5,19C 46,18.5 46.5,18 47,17.5C 47.1805,20.6946 47.6805,23.6946 48.5,26.5 Z"/></g>
<g><path style="opacity:0.993" fill="#06a2e3" d="M 20.5,28.5 C 21.0221,30.2191 22.0221,31.5525 23.5,32.5C 22.0903,33.8284 20.9236,33.4951 20,31.5C 14.4211,34.1879 8.58775,36.1879 2.5,37.5C 1.52577,39.7427 1.19244,42.076 1.5,44.5C 0.506201,35.0144 0.172867,25.3478 0.5,15.5C 3.66062,14.9473 6.99395,14.9473 10.5,15.5C 12.8353,18.1662 14.6686,21.1662 16,24.5C 17.6943,25.6988 19.1943,27.0322 20.5,28.5 Z"/></g>
<g><path style="opacity:1" fill="#f3fbfc" d="M 25.5,23.5 C 25.7118,25.3841 26.7118,26.7174 28.5,27.5C 28.2155,29.7594 27.2155,31.4261 25.5,32.5C 24.8333,32.5 24.1667,32.5 23.5,32.5C 22.0221,31.5525 21.0221,30.2191 20.5,28.5C 21.8333,26.5 23.5,24.8333 25.5,23.5 Z"/></g>
<g><path style="opacity:0.998" fill="#0197da" d="M 23.5,32.5 C 24.1667,32.5 24.8333,32.5 25.5,32.5C 27.7126,34.8603 30.3793,36.6937 33.5,38C 38.0327,39.6514 42.6994,40.8181 47.5,41.5C 46.6906,43.0709 46.3573,44.7376 46.5,46.5C 32.2414,47.6483 17.908,47.8149 3.5,47C 2.24402,46.5831 1.57735,45.7498 1.5,44.5C 1.19244,42.076 1.52577,39.7427 2.5,37.5C 8.58775,36.1879 14.4211,34.1879 20,31.5C 20.9236,33.4951 22.0903,33.8284 23.5,32.5 Z"/></g>
</svg>
